<svg width="204" height="152" xmlns="http://www.w3.org/2000/svg">
 <g>
  <title>background</title>
  <rect fill="#000000" id="canvas_background" height="154" width="206" y="-1" x="-1"/>
  <g display="none" overflow="visible" y="0" x="0" height="100%" width="100%" id="canvasGrid">
   <rect fill="url(#gridpattern)" stroke-width="0" y="0" x="0" height="100%" width="100%"/>
  </g>
 </g>
 <g>
  <title>Layer 1</title>
  <path stroke="#ffffff" d="m64.909156,55.394085c0,-1.204293 -0.88649,-2.526467 -2.150551,-4.817169c-0.565308,-1.024434 -0.415993,-4.717951 -3.225822,-6.021467c-1.986851,-0.921725 -3.225826,0 -4.301098,0c-1.075275,0 -3.225826,0 -5.376377,0c-2.150547,0 -10.83709,4.564089 -13.978573,6.021467c-2.221363,1.030522 -2.471729,1.142314 -4.301098,2.408582c-2.045296,1.415731 -1.92458,4.911632 -3.225826,8.430049c-0.92012,2.4879 -0.849304,4.911636 -2.150549,8.430049c-0.92012,2.4879 0.159189,5.092188 -1.075275,8.430049c-0.581934,1.573485 -0.252291,5.000519 -1.075274,7.22576c-0.581936,1.573485 -1.075275,3.612876 -1.075275,8.430049c0,2.408578 -0.247049,4.849379 0,6.021462c0.552416,2.620848 0.82144,4.53287 3.225824,7.225752c2.404387,2.692881 4.891596,4.763187 8.602198,6.021462c1.029137,0.348987 3.225826,0 4.301102,0c1.075275,0 2.150547,1.204298 3.225822,1.204298c1.075275,0 4.301102,0 5.376377,0c1.075272,0 2.566547,-2.309364 5.376373,-3.612876c0.993423,-0.460865 2.150551,-1.204298 3.225822,-2.408587l1.075275,0l2.150551,0l0,-1.204298" id="svg_10" fill-opacity="null" stroke-opacity="null" stroke-width="7.5" fill="none"/>
  <path d="m177.813016,50.963215c-1.075272,0 -2.150543,-2.150551 -2.150543,-4.301102c0,-1.075272 0,-2.150547 0,-3.225822c0,-2.150551 0,-3.225826 -1.075287,-3.225826c-1.075272,0 -2.150543,0 -5.376373,0c-3.225815,0 -5.41803,-0.516716 -8.602188,0c-3.356415,0.54467 -3.971466,3.719166 -5.376389,4.301102c-0.993423,0.411488 -3.855698,0.629871 -5.376373,2.150547c-0.76033,0.760334 -0.745636,2.64389 -2.150543,3.225826c-0.993423,0.411491 -1.075272,1.075275 -1.075272,3.225826c0,1.075272 -2.150558,1.075272 -2.150558,3.225822c0,2.150551 -1.075272,4.301102 -1.075272,5.376373c0,1.075279 0,3.225822 0,4.301102c0,1.075272 0.509964,3.386414 1.075272,4.301102c1.264069,2.045296 2.896194,1.568611 4.301102,2.150543c0.993423,0.411491 1.075272,1.075279 2.150558,1.075279c1.075272,0 1.390213,1.390213 2.150543,2.150551c0.76033,0.76033 2.4655,0.314941 3.22583,1.075272c0.76033,0.76033 2.896179,1.568619 4.301102,2.150551c1.986847,0.822968 3.971451,3.719162 5.376373,4.301102c0.993423,0.411484 2.150543,0 2.150543,1.075272c0,1.075272 -0.330597,2.350563 1.075272,4.301102c0.889145,1.233627 1.961761,1.180527 3.22583,3.225822c0.565308,0.91468 1.598129,3.036308 2.150543,5.376373c0.247055,1.046516 1.075287,1.075279 1.075287,3.225822c0,1.075279 1.075272,2.150551 1.075272,3.22583c0,1.075272 1.234467,2.396103 0,5.376373c-0.58194,1.404907 -0.745636,2.64389 -2.150558,3.225822c-0.993423,0.411484 -2.019958,1.605881 -5.376373,2.150551c-3.184158,0.516716 -5.376373,0 -8.602188,0c-3.22583,0 -5.186874,-0.522858 -7.526932,-1.075272c-1.046509,-0.247047 -2.150543,0 -3.22583,0c-1.075272,0 -2.465485,-0.314949 -3.225815,-1.075279c-0.76033,-0.76033 -2.4655,-0.314941 -3.22583,-1.075272c-0.76033,-0.760338 -0.916916,-1.261406 -2.150543,-2.150551c-1.950546,-1.405876 -1.820923,-3.719162 -3.22583,-4.301102c-0.993423,-0.411491 -1.075272,-1.075272 -1.075272,-2.150551l1.075272,-1.075272" id="svg_12" fill-opacity="null" stroke-opacity="null" stroke-width="7.5" stroke="#ffffff" fill="none"/>
  <path d="m130.500921,52.03849c0,-1.075275 0.411491,-2.232403 0,-3.225826c-0.581932,-1.404915 -0.66378,-2.232403 -1.075272,-3.225826c-0.58194,-1.404915 -2.150551,-2.150543 -3.22583,-3.225822c-2.150543,-2.150547 -4.301094,-2.150551 -5.376373,-2.150551c-4.301094,0 -6.451645,0 -9.677467,0c-1.075279,0 -2.150551,0 -6.451653,0c-3.225822,0 -5.245789,2.681156 -8.602196,3.225826c-3.184174,0.51672 -5.691322,1.390217 -6.451653,2.150547c-0.760338,0.760334 -1.605881,0.944687 -2.150551,4.301102c-0.344482,2.12278 -0.530602,3.095238 -1.075272,6.451649c-0.344475,2.122776 -1.075279,2.150547 -1.075279,4.301098c0,2.150551 0,3.225822 0,5.376373c0,2.150551 0,3.22583 1.075279,4.301102c1.075272,1.075272 2.896179,3.719162 4.301094,4.301102c1.986847,0.822983 5.376381,1.075272 6.451653,1.075272c1.075272,0 3.225822,0 4.301102,0c1.075272,0 2.150551,0 4.301094,0c2.150551,0 3.22583,0 4.301102,0c1.075279,0 2.476593,0.827271 3.225822,2.150551c2.184372,3.858009 2.336678,6.293289 3.22583,7.526924c1.405869,1.950539 0.450386,3.676216 2.150551,5.376373c1.700157,1.70015 1.739052,3.307671 2.150543,4.301102c0.58194,1.404915 1.075279,2.150551 1.075279,3.225822c0,1.075272 0,3.225822 0,4.301102c0,2.150551 0.494095,4.358627 0,6.451645c-0.552414,2.340073 -4.616043,4.616043 -5.376373,5.376373c-0.760338,0.760338 -1.961029,0.522865 -4.301102,1.075279c-1.046509,0.247047 -3.225822,0 -6.451653,0c-2.150543,0 -3.225822,0 -4.301094,0c-1.075279,0 -2.150551,0 -3.22583,0c-1.075272,0 -2.150543,0 -5.376373,0c-1.075272,0 -2.150551,0 -3.225822,-1.075279c-1.075272,-1.075272 -1.390221,-1.390213 -2.150551,-2.150543c-0.76033,-0.76033 -2.465492,-0.314949 -3.225822,-1.075279c-0.76033,-0.76033 -1.390221,-0.314941 -2.150551,-1.075272c-0.760338,-0.760338 -2.33667,-1.992195 -3.225822,-3.22583c-1.405869,-1.950539 -1.075279,-3.225822 -3.225822,-4.301094l0,-1.075279l0,-1.075272" id="svg_13" fill-opacity="null" stroke-opacity="null" stroke-width="7.5" stroke="#ffffff" fill="none"/>
 </g>
</svg>