<svg width="249" height="213" xmlns="http://www.w3.org/2000/svg" style="vector-effect: non-scaling-stroke;" stroke="null">
 <g stroke="null">
  <title stroke="null">background</title>
  <rect stroke="null" fill="#000000" id="canvas_background" height="215" width="251" y="-1" x="-1"/>
  <g style="vector-effect: non-scaling-stroke;" stroke="null" display="none" overflow="visible" y="0" x="0" height="100%" width="100%" id="canvasGrid">
   <rect fill="url(#gridpattern)" stroke-width="0" y="0" x="0" height="100%" width="100%"/>
  </g>
 </g>
 <g stroke="null">
  <title stroke="null">Layer 1</title>
  <polyline stroke="#ffffff" style="vector-effect: non-scaling-stroke;" transform="translate(614.0056762695312,230.1306915283203) scale(1) translate(-614.0056762695312,-230.1306915283203) " stroke-linecap="round" id="svg_5" points="614.0056861525724,231.1306844944795 614.0056861525724,230.1306844944795 " stroke-width="7.5" fill="none"/>
  <polyline stroke="#ffffff" stroke-linecap="round" id="svg_7" points="429.00568615257237,106.13068449447945 429.00568615257237,105.13068449447945 " fill-opacity="null" stroke-opacity="null" stroke-width="7.5" fill="none"/>
  <polyline stroke="#ffffff" stroke-linecap="round" id="svg_9" points="372.00567626953125,73.13068389892578 372.00567626953125,72.13068389892578 " fill-opacity="null" stroke-opacity="null" stroke-width="7.5" fill="none"/>
  <path id="svg_18" d="m-242.279328,96.150033l0,-0.838125l0,0c0,-0.360021 0.195875,-0.651875 0.437498,-0.651875l0,0l0,0c0.116032,0 0.227311,0.068679 0.309358,0.19093c0.082047,0.12225 0.12814,0.288057 0.12814,0.460945l0,0.093125l0.124999,0l-0.249999,0.3725l-0.249999,-0.3725l0.125,0l0,-0.093125c0,-0.154294 -0.083946,-0.279375 -0.187499,-0.279375l0,0l0,0c-0.103553,0 -0.187499,0.12508 -0.187499,0.279375l0,0.838125l-0.249999,0z" fill-opacity="null" stroke-opacity="null" stroke-width="7.5" stroke="#ffffff" fill="none"/>
  <path id="svg_19" d="m76.897322,133.624458l104.247355,0.034412l-3.382851,4.322733l-97.441713,-0.103233l-3.422795,-4.253913l0.000004,0zm0.716399,-57.502157l102.854353,-0.103233l2.984948,4.434464l-108.864095,0.034412l3.024794,-4.365644zm-10.150469,28.813555l123.075638,-0.103233l-0.15909,4.434468l-122.83695,-0.068821l-0.079598,-4.262415zm123.17752,0.411294c0,29.357217 -27.627726,53.239611 -61.592372,53.239611c-33.949972,0 -61.57255,-23.886711 -61.57255,-53.239611c0,-29.353043 27.62757,-53.235433 61.57255,-53.235433c33.964651,-0.004313 61.592372,23.88239 61.592372,53.235433zm-61.587536,-57.50216c-36.660048,0 -66.49251,25.793053 -66.49251,57.497836c0,31.709103 29.832467,57.502153 66.49251,57.502153c36.680009,0 66.507492,-25.79305 66.507492,-57.502153c0,-31.704783 -29.827479,-57.497836 -66.507492,-57.497836zm18.659664,57.50216c0,31.37063 -9.830253,53.239611 -18.659664,53.239611c-8.819422,0 -18.649518,-21.868981 -18.649518,-53.239611c0,-31.379267 9.825251,-53.235433 18.649518,-53.235433c8.824428,-0.004313 18.659664,21.856167 18.659664,53.235433zm-18.659664,-57.50216c-15.314958,0 -23.579464,29.627055 -23.579464,57.497836c0,27.879291 8.264506,57.502153 23.579464,57.502153c15.315114,0 23.594598,-29.627171 23.594598,-57.502153c-0.004992,-27.870781 -8.279483,-57.497836 -23.594598,-57.497836zm43.700845,57.50216c0,29.357217 -19.610898,53.239611 -43.700845,53.239611c-24.084942,0 -43.685864,-23.886711 -43.685864,-53.239611c0,-29.353043 19.600922,-53.235433 43.685864,-53.235433c24.089948,-0.004313 43.700845,23.88239 43.700845,53.235433zm-43.700845,-57.50216c-26.800166,0 -48.615804,25.793053 -48.615804,57.497836c0,31.709103 21.815638,57.502153 48.615804,57.502153c26.810151,0 48.620949,-25.79305 48.620949,-57.502153c0,-31.704783 -21.810798,-57.497836 -48.620949,-57.497836z" fill-opacity="null" stroke-opacity="null" stroke="#ffffff" fill="none"/>
 </g>
</svg>