<svg width="222" height="154" xmlns="http://www.w3.org/2000/svg">
 <g>
  <title>background</title>
  <rect fill="#000000" id="canvas_background" height="156" width="224" y="-1" x="-1"/>
  <g display="none" overflow="visible" y="0" x="0" height="100%" width="100%" id="canvasGrid">
   <rect fill="url(#gridpattern)" stroke-width="0" y="0" x="0" height="100%" width="100%"/>
  </g>
 </g>
 <g>
  <title>Layer 1</title>
  <path d="m312.030945,133.422806c-312.030945,-133.422806 -312.030945,-133.422806 -312.030945,-133.422806l312.030945,132.391876l-1.030914,-2.061859l-6.185577,-16.494843" id="svg_6" stroke-width="22.5" stroke="#000" fill="none"/>
  <path stroke="#ffffff" d="m29.556722,38.577438c0,1.03093 0,2.061859 0,4.123714c0,3.092781 0.163329,3.807667 0.223921,5.154636c0.085691,1.904907 -0.085691,4.280666 0,6.18557c0.060593,1.34697 0.27529,2.776737 0.335882,4.123711c0.042846,0.95245 -0.025723,2.089432 0,3.092785c0.057519,2.243557 0.166402,2.911083 0.223921,5.154636c0.025723,1.003349 0.054441,1.880157 0.111961,4.123711c0.025723,1.003349 0,2.061859 0,3.092789c0,2.061852 -0.042845,4.202187 0,5.154633c0.060593,1.346977 0.111961,2.061859 0.111961,3.092789c0,1.03093 0,2.061852 0,3.092781c0,1.03093 0.051368,1.745811 0.111961,3.092781c0.085691,1.904907 -0.017934,3.106102 0,4.123718c0.056713,3.217979 0.163329,3.807663 0.223922,5.154633c0.085692,1.904907 0,3.092789 0,4.123718c0,1.030922 0,3.092781 0,4.123711c0,1.030922 0,2.061852 0,3.092781l0,1.03093l0,0l0,1.03093" id="svg_12" fill-opacity="null" stroke-width="8.5" fill="none"/>
  <path stroke="#ffffff" d="m31.618578,76.516599c0,0 0,0.205172 0.995378,0.205172c0.99538,0 0.819944,-0.304936 2.986137,-0.410342c0.968751,-0.047138 1.990757,0 2.986133,0c0,0 1.990757,-0.205172 4.976894,-0.205172c0.99538,0 1.685611,-0.094133 2.986137,-0.205172c0.919607,-0.078515 1.990757,0 3.981514,0c0.995377,0 1.990757,0 2.986137,0c0.995377,0 3.061903,-0.078517 3.981514,0c1.300522,0.111039 0.995377,0.410343 1.990757,0.410343l0.995377,0" id="svg_13" fill-opacity="null" stroke-opacity="null" stroke-width="8.5" fill="none"/>
  <path stroke="#ffffff" d="m60.403757,44.763007c0,2.819892 0,3.759857 0,4.699819c0,2.819892 0,3.759854 0,4.699819c0,1.879927 -0.037071,2.531734 -0.080799,3.759854c-0.030921,0.868414 0,1.879927 0,2.819892c0,0.939962 0,1.879927 0,3.759854c0,1.879927 0,3.759857 0,5.639781c0,1.87993 0,2.819889 0,3.759854c0,1.87993 0,3.759854 0,5.639784c0,0.939965 0.037071,1.591769 0.080799,2.819889c0.061841,1.736827 0,2.819896 0,5.639784c0,1.879923 0,2.819889 0,3.759854c0,0.939965 0,2.819889 0,3.759854c0,0.939965 0,1.87993 0,2.819889c0,0.939965 0,1.87993 0,1.87993c0,0.939965 0,1.87993 0,2.819889c0,0.939965 -0.057134,2.155236 0,2.819896c0.057134,0.664659 0.080799,0.939958 0.080799,1.879923l0,0.939965" id="svg_14" fill-opacity="null" stroke-opacity="null" stroke-width="8.5" fill="none"/>
  <path stroke="#ffffff" d="m74.917549,47.445447c1.03093,0 2.061852,0 3.092781,0c1.03093,0 2.061859,0 2.061859,0c1.030922,-0.205172 2.061852,-0.205172 3.092781,-0.205172c1.03093,0 1.745811,-0.094134 3.092781,-0.205173c0.952454,-0.078516 2.061859,0 3.092789,0c1.030922,0 4.150337,-0.06573 6.185562,0c3.217987,0.103929 4.151291,0.158034 5.15464,0.205173c2.243561,0.105406 5.15464,0.615517 7.216499,0.615517c1.030922,0 2.061852,0 3.092781,0c0,0 1.03093,0 3.092781,0c1.03093,0 1.08609,-0.110893 3.092789,-0.205172c2.243553,-0.105406 3.39473,-0.060094 4.123711,-0.205173c0.728973,-0.145078 1.030922,-0.205172 2.061852,-0.410345l1.03093,0" id="svg_15" fill-opacity="null" stroke-opacity="null" stroke-width="8.5" fill="none"/>
  <path stroke="#ffffff" d="m99.659813,48.886719c0,0 0,0 0,1.03093c0,2.061855 0,4.123711 0,5.154636c0,1.03093 0,2.061855 0,3.092785c0,2.061855 0,3.092785 0,4.123711c0,1.03093 0,2.061859 0,3.092781c0,1.03093 0,3.092789 0,3.092789c0,2.061852 0,3.092781 0,4.123711c0,1.03093 0,3.092781 0,4.123711c0,1.03093 0,2.061852 0,3.092781c0,2.061859 0,3.092789 0,4.123711c0,1.03093 0,2.061859 0,3.092789c0,1.030922 0,2.061852 0,2.061852c0,1.03093 0,2.061859 0,3.092789c0,1.030922 0,2.061852 0,3.092781c0,1.03093 0,2.061852 0,3.092781c0,1.03093 0,1.03093 0,2.061859c0,1.03093 0,2.061852 0,3.092781l0,1.03093l0,1.03093" id="svg_16" fill-opacity="null" stroke-opacity="null" stroke-width="8.5" fill="none"/>
  <path stroke="#ffffff" d="m130.253221,41.670223c0,1.03093 0,3.092785 0,5.15464c0,1.030926 0,4.123711 0,5.15464c0,1.030926 -0.036566,3.249729 0,5.154636c0.025857,1.346973 0.047777,1.03093 0.047777,3.092785c0,1.03093 0.023232,1.880154 0.047777,4.123714c0.010977,1.003342 0,3.092781 0.047777,4.123711c0,0 0.047777,2.061852 0.047777,3.092781c0,2.061859 -0.014689,3.284538 0.047777,5.15464c0.039507,1.182755 0.047777,2.061852 0.047777,2.061852c0.047777,1.03093 0.047777,2.061859 0.047777,3.092789c0,1.03093 0,2.061852 0,4.123711c0,1.03093 0,2.061852 0,3.092781c0,1.03093 0,2.061859 0,3.092789c0,1.030922 0,3.092781 0,4.123711c0,2.061852 0,3.092781 0,3.092781c0,1.03093 0,3.092781 0,5.15464c0,1.03093 0,2.061852 0,3.092781l0,1.03093l0,1.03093" id="svg_17" fill-opacity="null" stroke-opacity="null" stroke-width="8.5" fill="none"/>
  <path stroke="#ffffff" d="m130.587646,45.793935c0,0 -0.728973,0.272731 0,0.931162c0.728973,0.658431 3.007843,1.2914 4.123718,3.724642c0.394516,0.860277 1.03093,0.931159 1.03093,0.931159c0,0.931162 0.636414,1.002044 1.03093,1.862324c0.557938,1.216618 1.03093,1.862321 2.061844,1.862321c1.03093,0 1.332886,1.20389 2.061859,1.862321c0.728973,0.658428 0.301956,1.20389 1.03093,1.862321c0.728973,0.658428 0,1.862321 0,1.862321c1.03093,0 2.061859,0.931159 2.061859,1.862321c0,0.931162 0.301956,2.135052 1.03093,2.793483c0.728973,0.658434 1.03093,0.931162 1.03093,1.862317c0,0.931162 1.03093,2.793487 2.061844,2.793487c0,0 1.03093,1.862317 1.03093,2.79348l0,0.931162l1.03093,0l1.03093,0.931162" id="svg_18" fill-opacity="null" stroke-opacity="null" stroke-width="8.5" fill="none"/>
  <path stroke="#ffffff" d="m149.144346,72.598055c0,0 0.739462,0.777466 3.917532,-1.030922c3.349971,-1.906204 1.305844,-3.092789 3.917532,-5.15464c1.305844,-1.03093 3.210811,-2.776749 3.917513,-4.123714c0.49972,-0.952454 1.305844,-1.030926 1.305844,-2.061855c0,-1.030926 1.950233,-0.905724 2.611688,-4.123711c0.209165,-1.017612 0.599123,-1.745811 1.305844,-3.092781c0.49972,-0.952454 0,-2.061859 1.305844,-2.061859l0,0l1.305844,-1.030926" id="svg_19" fill-opacity="null" stroke-opacity="null" stroke-width="8.5" fill="none"/>
  <path stroke="#ffffff" d="m166.472999,44.763008c0,1.030926 0,3.092781 0,6.185566c0,4.123711 0,6.185566 0,7.216496c0,1.030926 0,3.092785 0,4.123711c0,1.03093 0,4.123711 0,6.18557c0,2.061852 0,3.092781 0,5.15464c0,2.061852 0,4.123711 0,6.185562c0,2.061859 -0.030193,3.147942 0,5.15464c0.033757,2.243561 0.09766,3.942009 0.131418,6.18557c0.04529,3.010048 0.065709,5.15464 0.065709,7.216492c0,1.03093 0,3.092789 0,5.15464c0,1.03093 0,3.092781 0,4.123711c0,1.03093 0,2.061859 0,2.061859l0,1.03093" id="svg_20" fill-opacity="null" stroke-opacity="null" stroke-width="8.5" fill="none"/>
  <path stroke="#ffffff" d="m183.164978,45.793934c0,1.03093 0,2.061855 0,3.092785c0,3.092785 0,5.15464 0,7.216496c0,1.030926 0,2.061855 0,3.092781c0,2.061859 0,4.123714 0,6.185566c0,2.061859 0,3.092789 0,5.15464c0,3.092789 0,5.15464 0,6.18557c0,2.061852 0,3.092781 0,6.18557c0,2.061852 0,3.092781 0,5.154633c0,1.03093 0,1.03093 0,2.061859c0,1.03093 0.257727,2.061859 0.257727,3.092781c0,1.03093 -0.197257,2.218811 0,4.123711c0.139484,1.346977 0.06047,2.218811 0.257731,4.123718c0.139484,1.34697 0.257731,2.061852 0.257731,3.092781c0,1.03093 0,2.061852 0,3.092781c0,1.03093 0.257731,2.061859 0.257731,2.061859c0,1.03093 0,2.061852 0,4.123711l0,1.03093" id="svg_21" fill-opacity="null" stroke-opacity="null" stroke-width="8.5" fill="none"/>
  <path d="m186.257751,109.711464c0,0 1.03093,0 2.061859,0c1.03093,0 2.061859,0 3.092789,0c1.03093,0 2.061844,0 2.061844,0c1.03093,0 2.061859,0 3.092789,0c1.03093,0 2.061859,0 3.092789,0c1.03093,0 2.061859,0 3.092773,0c1.03093,0 2.061859,0 2.061859,0c1.03093,0 2.061859,0 4.123718,0l0,0" id="svg_22" fill-opacity="null" stroke-opacity="null" stroke-width="8.5" stroke="#ffffff" fill="none"/>
 </g>
</svg>