<svg width="204" height="153" xmlns="http://www.w3.org/2000/svg">
 <!-- Created with Method Draw - http://github.com/duopixel/Method-Draw/ -->
 <g>
  <title>background</title>
  <rect fill="#000000" id="canvas_background" height="155" width="206" y="-1" x="-1"/>
  <g display="none" overflow="visible" y="0" x="0" height="100%" width="100%" id="canvasGrid">
   <rect fill="url(#gridpattern)" stroke-width="0" y="0" x="0" height="100%" width="100%"/>
  </g>
 </g>
 <g>
  <title>Layer 1</title>
  <path d="m47.505686,37.215912c2,0 4.000002,0 6.000002,0c3,0 6,0 8,0c2,0 3,0 5,0c2,0 4,0 5,0c2,0 3,0 4,0c1,0 2.878555,-0.493458 6,-1c0.987087,-0.160183 1.999996,0 3.999996,0c1,0 2,0 2,1c0,1 0,3 0,5c0,1 0,2 0,3c0,1 0,2 0,3c0,1 0,2 0,4c0,1 0,2 0,3c0,1 0,2 0,4c0,1 0,2 0,5c0,2 -1,3 -1,4c0,1 -0.486259,1.823746 -1,4c-0.229752,0.973251 0,4 0,7c0,2 0,3 0,4c0,1 0,2 0,5c0,2 -2,4 -2,6c0,2 -1,4 -1,6c0,1 0,3 0,5c0,2 -1.458801,2.693436 -1.999996,4c-0.382683,0.923882 -0.097885,3.824432 -2,5c-0.850651,0.525734 -1.934143,1.144295 -4,2c-2.921562,1.210152 -4,1 -6,1c-1,0 -2,0 -4,0c-1,0 -2.026752,0.229752 -3,0c-2.17625,-0.513741 -2.85273,-1.173096 -4,-2c-1.813992,-1.307449 -2.292892,-2.292892 -3,-3c-0.707108,-0.707108 -2,-3 -2,-4c0,-1 0.382683,-2.076118 0,-3c-0.541195,-1.306564 -1,-3 -2,-4l-1.000002,-1l0,-2" id="svg_3" stroke-width="8.5" stroke="#ffffff" fill="none"/>
  <path d="m154.505692,53.215912c0,-1 0,-3 0,-5c0,-1 -0.292892,-1.292892 -1,-2c-0.707108,-0.707108 -0.292892,-2.292892 -1,-3c-0.707108,-0.707108 -2.61731,-1.076122 -3,-2c-0.541199,-1.306564 -0.434631,-2.150982 -3,-4c-0.811249,-0.584709 -2,0 -3,-1c-1,-1 -2.012909,-0.839817 -3,-1c-3.121452,-0.506542 -3.693443,-1.458805 -5.000008,-2c-1.847755,-0.765366 -3,0 -4,0c-1,0 -2,0 -4,0c-3,0 -4.076118,0.617317 -5,1c-1.306564,0.541195 -2.076118,1.617317 -3,2c-1.306564,0.541195 -2.458801,3.693436 -3,5c-0.382683,0.923878 -0.292892,3.292892 -1,4c-1.414215,1.414215 -2,1 -2,2c0,1 0,2 0,3c0,2 0,3 0,5c0,1 0,2 0,3c0,1 -0.707108,2.292892 0,3c1.414215,1.414215 0.434624,2.150982 3,4c0.811241,0.584709 1.292892,1.292892 2,2c0.707108,0.707108 1.617317,1.076118 2,2c0.541199,1.306564 2.693436,1.458801 4,2c0.923882,0.382683 1,1 3,1c1,0 2,0 3,0c1,0 1,1 2,1c1,0 1.693436,0.458801 3,1c0.923882,0.382683 1.386871,0.91761 4,2c0.923882,0.382683 2.000008,0 3.000008,0c1,0 1.076126,0.617317 2,1c1.306564,0.541199 1.292892,1.292892 2,2c0.707108,0.707108 2,2 2,4c0,1 -0.229752,2.026749 0,3c0.513748,2.176254 1,3 1,5c0,1 0,2 0,3c0,2 0.95517,2.549156 2,6c0.28978,0.957092 0,2 0,3c0,1 0,2 0,3c0,1 -0.824432,1.097885 -2,3c-0.525726,0.850655 -0.076126,2.617317 -1,3c-2.613129,1.08239 -3.149353,1.474266 -4,2c-1.902115,1.175568 -3.878555,3.493462 -7.000008,4c-0.987091,0.160179 -1.823746,0.486259 -4,1c-0.973251,0.229752 -3,0 -4,0c-2,0 -4,0 -5,0c-2,0 -3,0 -4,0c-1,0 -2,0 -3,0c-1,0 -2.585785,1.414215 -4,0c-0.707108,-0.707108 -0.474266,-2.149345 -1,-3c-1.175568,-1.902115 -2.458801,-1.693436 -3,-3c-0.382683,-0.923882 -1,-1 -1,-4c0,-1 -0.292892,-1.292892 -1,-2c-1.414215,-1.414215 0,-3 -1,-3l0,-1l0,-1l0,-1" id="svg_4" stroke-width="8.5" stroke="#ffffff" fill="none"/>
 </g>
</svg>