<!-- <?xml version="1.0" encoding="UTF-8" standalone="no"?> -->
<svg
   xmlns:dc="http://purl.org/dc/elements/1.1/"
   xmlns:cc="http://creativecommons.org/ns#"
   xmlns:rdf="http://www.w3.org/1999/02/22-rdf-syntax-ns#"
   xmlns:svg="http://www.w3.org/2000/svg"
   xmlns="http://www.w3.org/2000/svg"
   viewBox="0 0 1750.7067 1476.6133"
   height="1476.6133"
   width="1750.7067"
   xml:space="preserve"
   id="svg2"
   version="1.1">
   <metadata
     id="metadata8"><rdf:RDF><cc:Work
         rdf:about=""><dc:format>image/svg+xml</dc:format><dc:type
           rdf:resource="http://purl.org/dc/dcmitype/StillImage" /></cc:Work></rdf:RDF>
    </metadata><defs
     id="defs6" /><g
     transform="matrix(1.3333333,0,0,-1.3333333,0,1476.6133)"
     id="g10"><g
       transform="scale(0.1)"
       id="g12"><path
         id="path14"
         style="fill:#231f20;fill-opacity:1;fill-rule:nonzero;stroke:none"
         d="M 10530.2,2152.1 H 2347.35 V 8525.8 H 10530.2 V 2152.1" /><path
         id="path16"
         style="fill:none;stroke:#ffffff;stroke-width:20;stroke-linecap:round;stroke-linejoin:round;stroke-miterlimit:4;stroke-dasharray:none;stroke-opacity:1"
         d="M 4702.86,5497.59 13120.3,3686.16 c 0,0 -4750.93,977.88 -6176.36,-2489.98 L 4638.01,5471.45" /><path
         id="path18"
         style="fill:none;stroke:#ffffff;stroke-width:20;stroke-linecap:round;stroke-linejoin:round;stroke-miterlimit:4;stroke-dasharray:none;stroke-opacity:1"
         d="M 4544.81,5424.69 4001.64,10 c 0,0 1581.57,1495.22 2942.3,1186.18" /><path
         id="path20"
         style="fill:none;stroke:#ffffff;stroke-width:20;stroke-linecap:round;stroke-linejoin:round;stroke-miterlimit:4;stroke-dasharray:none;stroke-opacity:1"
         d="m 4659.09,5555.86 4481.55,5508.74 c 0,0 -3045.23,-2038.15 -6188.35,-2467.73" /><path
         id="path22"
         style="fill:none;stroke:#ffffff;stroke-width:20;stroke-linecap:round;stroke-linejoin:round;stroke-miterlimit:4;stroke-dasharray:none;stroke-opacity:1"
         d="m 4706.15,5509.76 6103.35,2460.6 c 0,0 -2110.05,1844.79 -1668.86,3094.24" /><path
         id="path24"
         style="fill:none;stroke:#ffffff;stroke-width:20;stroke-linecap:round;stroke-linejoin:round;stroke-miterlimit:4;stroke-dasharray:none;stroke-opacity:1"
         d="M 4599.94,5542.03 2952.29,8596.87 c 0,0 -668.27,-846.71 -2942.29,-1186.17 L 4561.82,5516.66" /><path
         id="path26"
         style="fill:none;stroke:#ffffff;stroke-width:20;stroke-linecap:round;stroke-linejoin:round;stroke-miterlimit:4;stroke-dasharray:none;stroke-opacity:1"
         d="m 4874.66,5460.62 c 0,0 -186.66,-13.24 -168.28,-115.94 0,0 -86.67,78.39 -173.17,-35.69 0,0 -64.14,105.2 -161.4,65.99 0,0 161.74,118.6 -16.79,227.74 0,0 167.84,25.03 142.9,128.45 0,0 74.7,-95.03 259.9,-53.94 0,0 -87.14,-137.77 116.84,-216.61 z" /><path
         id="path28"
         style="fill:none;stroke:#ffffff;stroke-width:20;stroke-linecap:round;stroke-linejoin:round;stroke-miterlimit:4;stroke-dasharray:none;stroke-opacity:1"
         d="m 4659.09,5555.86 c 0,0 -34.97,-26.62 -59.15,-13.83 0,0 -18.93,-25.32 -38.12,-25.37 0,0 3.96,-57.64 -38.05,-80.41 0,0 26.64,3.21 21.04,-11.56 0,0 66.54,71.05 93.2,46.76 0,0 21.56,30.12 64.85,26.14 0,0 -4.26,7.88 3.29,12.17 0,0 -68.31,17.67 -47.06,46.1 z" /><path
         id="path30"
         style="fill:none;stroke:#ffffff;stroke-width:20;stroke-linecap:round;stroke-linejoin:round;stroke-miterlimit:4;stroke-dasharray:none;stroke-opacity:1"
         d="m 5014.2,5430.59 c 0,0 -269.98,-53.15 -225.77,-238.02 0,0 -136.62,137.49 -267.96,-10.51 0,0 -124.36,202.71 -276.33,141.44 0,0 158.47,134.99 -132.01,380.28 0,0 335,-15.64 271.62,239.11 0,0 153.11,-232.69 489.48,-123.79 0,0 -88.98,-200.27 121.69,-192.93 0,0 -169.2,-102.01 19.28,-195.58 z" /><path
         id="path32"
         style="fill:none;stroke:#ffffff;stroke-width:20;stroke-linecap:round;stroke-linejoin:round;stroke-miterlimit:4;stroke-dasharray:none;stroke-opacity:1"
         d="m 5212.48,5387.93 c 0,0 -345.39,-30.19 -335.35,-359.82 0,0 -234.24,155.12 -377.01,-48.92 0,0 -141.26,287.13 -568.04,218.51 0,0 289.89,340.37 -60.62,606.21 0,0 443.48,28.67 395.1,356.22 0,0 418.5,-304.29 813.16,-87.22 0,0 -95.17,-347.46 242.46,-314.8 0,0 -320.18,-123.6 -109.7,-370.18 z" /><path
         id="path34"
         style="fill:none;stroke:#ffffff;stroke-width:20;stroke-linecap:round;stroke-linejoin:round;stroke-miterlimit:4;stroke-dasharray:none;stroke-opacity:1"
         d="m 4133.52,6406.82 c 0,0 -15.32,-480.09 -451.47,-524.09 0,0 349.6,-458.01 -82.29,-819.01 0,0 747.97,65.34 862.94,-457.63 0,0 322.32,391.55 609.59,60.21 0,0 -81.45,624.54 503.46,643.45 0,0 -324.2,323.14 66.58,577.43 0,0 -500.92,81.9 -338.79,460.86 0,0 -557.95,-298.47 -1170.02,58.78 z" /><path
         id="path36"
         style="fill:none;stroke:#ffffff;stroke-width:20;stroke-linecap:round;stroke-linejoin:round;stroke-miterlimit:4;stroke-dasharray:none;stroke-opacity:1"
         d="m 4427.54,4255.54 c 0,0 -158.58,710.89 -1131.75,685.64 0,0 602.73,580.4 -45.75,1121.34 0,0 788.15,-27.82 670.58,738.99 0,0 773.44,-584.97 1629.76,-150.08 0,0 -113.61,-593.51 485.05,-605.76 0,0 -535.41,-368.82 -98.53,-813.64 0,0 -760.97,-90.15 -645.81,-971.4 0,0 -423.23,508.85 -863.55,-5.09 z" /><path
         id="path38"
         style="fill:none;stroke:#ffffff;stroke-width:20;stroke-linecap:round;stroke-linejoin:round;stroke-miterlimit:4;stroke-dasharray:none;stroke-opacity:1"
         d="m 3709.2,7193.49 c 0,0 153.89,-737.67 -828.31,-977.4 0,0 517.49,-806.42 -152.47,-1503.63 0,0 1183.21,-146.96 1591.89,-1525.58 0,0 508.51,1070.88 1174.79,695.46 0,0 -282.31,912.82 1020.64,1225.11 0,0 -550.98,602.73 172.19,1201.28 0,0 -805.48,9.6 -774.13,789.43 0,0 -1143.75,-618.26 -2204.6,95.33 z" /><path
         id="path40"
         style="fill:none;stroke:#ffffff;stroke-width:20;stroke-linecap:round;stroke-linejoin:round;stroke-miterlimit:4;stroke-dasharray:none;stroke-opacity:1"
         d="m 7599.8,6676.34 c 0,0 -1164.86,-219.74 -1292.75,905.19 0,0 -1659.38,-847.3 -2889.08,151.92 0,0 -169.81,-1273.2 -1071.93,-1294.8 0,0 805.64,-1248.55 -290.37,-1997.42 0,0 1547.31,-258.52 2132.2,-2574.88 0,0 666.76,1867.91 1864.6,982.63 0,0 -81.16,1815.36 1391.08,2058.82 0,0 -823.04,839.83 156.25,1768.54 z" /><path
         id="path42"
         style="fill:none;stroke:#ffffff;stroke-width:20;stroke-linecap:round;stroke-linejoin:round;stroke-miterlimit:4;stroke-dasharray:none;stroke-opacity:1"
         d="m 6463.45,2086.99 c 0,0 169.95,2399.88 2148.92,2569.28 0,0 -548.47,1232.77 397.78,2588.65 0,0 -2192.69,-40.91 -1734.05,1527.78 0,0 -1858.31,-1801.41 -4085.8,-617.12 0,0 -80.09,-1328.24 -1199.98,-1568.9 0,0 467.74,-1235.75 -230.49,-2264.71 0,0 1530.3,-882.16 2318.69,-3545.536 0,0 634.27,1839.486 2384.93,1310.556 z" /><path
         id="path44"
         style="fill:none;stroke:#ffffff;stroke-width:20;stroke-linecap:round;stroke-linejoin:round;stroke-miterlimit:4;stroke-dasharray:none;stroke-opacity:1"
         d="m 7777.21,9388.69 c 0,0 -4.71,-1788.45 2221.8,-1745.12 0,0 -1548.16,-917.34 -300.58,-3221.02 0,0 -2519.16,-698.82 -3048.73,-2680.91 0,0 -1714.06,221.99 -2619.85,-1450.636" /><path
         id="path46"
         style="fill:none;stroke:#ffffff;stroke-width:20;stroke-linecap:round;stroke-linejoin:round;stroke-miterlimit:4;stroke-dasharray:none;stroke-opacity:1"
         d="m 10867.4,4170.96 c 0,0 -1614.42,2898.21 -163.2,3756.91 0,0 -1937.67,274.26 -2095.76,2482.53 0,0 -3224.81,-2204.84 -5580.76,-1953.31 0,0 -927.82,-1549.29 -1819.78,-1544.85 0,0 652.36,-1395.2 483.03,-2618.06 l 2832.84,1142.07" /><path
         id="path48"
         style="fill:none;stroke:#ffffff;stroke-width:20;stroke-linecap:round;stroke-linejoin:round;stroke-miterlimit:4;stroke-dasharray:none;stroke-opacity:1"
         d="m 4001.64,10 c 0,0 -1372.1,3714.88 -2310.71,4284.18" /><path
         id="path50"
         style="fill:none;stroke:#ffffff;stroke-width:20;stroke-linecap:round;stroke-linejoin:round;stroke-miterlimit:4;stroke-dasharray:none;stroke-opacity:1"
         d="m 10809.5,7970.36 c 0,0 -649.6,-1997.18 2310.8,-4284.2" /><path
         id="path52"
         style="fill:none;stroke:#ffffff;stroke-width:5;stroke-linecap:round;stroke-linejoin:round;stroke-miterlimit:4;stroke-dasharray:none;stroke-opacity:1"
         d="M 8432.48,5645.76 165.891,4305.32 c 0,0 4668.039,715.67 6261.999,-2524.52 l 2070.34,3838.47" /><path
         id="path54"
         style="fill:none;stroke:#ffffff;stroke-width:5;stroke-linecap:round;stroke-linejoin:round;stroke-miterlimit:4;stroke-dasharray:none;stroke-opacity:1"
         d="m 8593.18,5572.74 817.8,-4994.576 c 0,0 -1647.6,1434.236 -2983.09,1202.636" /><path
         id="path56"
         style="fill:none;stroke:#ffffff;stroke-width:5;stroke-linecap:round;stroke-linejoin:round;stroke-miterlimit:4;stroke-dasharray:none;stroke-opacity:1"
         d="M 8472.95,5697.61 3738.92,10929.9 c 0,0 3129.11,-1989.18 6272.78,-2504.53" /><path
         id="path58"
         style="fill:none;stroke:#ffffff;stroke-width:5;stroke-linecap:round;stroke-linejoin:round;stroke-miterlimit:4;stroke-dasharray:none;stroke-opacity:1"
         d="M 8428.57,5657.07 2240.52,8151.78 c 0,0 2000.77,1613.46 1498.4,2778.12" /><path
         id="path60"
         style="fill:none;stroke:#ffffff;stroke-width:5;stroke-linecap:round;stroke-linejoin:round;stroke-miterlimit:4;stroke-dasharray:none;stroke-opacity:1"
         d="m 8532.4,5682.63 1479.3,2742.74 c 0,0 707.2,-803.44 2983.1,-1202.64 L 8571.55,5657.86" /><path
         id="path62"
         style="fill:none;stroke:#ffffff;stroke-width:5;stroke-linecap:round;stroke-linejoin:round;stroke-miterlimit:4;stroke-dasharray:none;stroke-opacity:1"
         d="m 8263.73,5618.4 c 0,0 186.09,-19.32 173.08,-112.97 0,0 82.08,68.68 173.84,-39.41 0,0 58.3,94.16 156.92,54.41 0,0 -166.76,115.14 4.97,208.52 0,0 -168,29.44 -148.57,123.49 0,0 -69.28,-84.41 -255.33,-39.56 0,0 93.63,-129.89 -104.91,-194.48 z" /><path
         id="path64"
         style="fill:none;stroke:#ffffff;stroke-width:5;stroke-linecap:round;stroke-linejoin:round;stroke-miterlimit:4;stroke-dasharray:none;stroke-opacity:1"
         d="m 8472.95,5697.61 c 0,0 36.11,-25.78 59.45,-14.98 0,0 20.1,-24 39.15,-24.77 0,0 -0.94,-52.8 41.93,-75.33 0,0 -26.63,4.01 -20.3,-9.79 0,0 -69.73,67.81 -94.95,46.53 0,0 -22.96,28.48 -65.75,26.49 0,0 3.81,7.07 -3.91,11.31 0,0 66.93,13.6 44.38,40.54 z" /><path
         id="path66"
         style="fill:none;stroke:#ffffff;stroke-width:5;stroke-linecap:round;stroke-linejoin:round;stroke-miterlimit:4;stroke-dasharray:none;stroke-opacity:1"
         d="m 8126.7,5596.2 c 0,0 270.84,-59.21 236.45,-227.31 0,0 128.62,121.03 266.66,-19.97 0,0 113.08,181.44 267.18,119.32 0,0 -164.32,130.06 111.54,344.21 0,0 -331.89,-1.46 -282.01,230.11 0,0 -140.12,-207.88 -479.79,-94.94 0,0 98.68,-187.36 -110.91,-172.52 0,0 173.28,-100.24 -9.12,-178.9 z" /><path
         id="path68"
         style="fill:none;stroke:#ffffff;stroke-width:5;stroke-linecap:round;stroke-linejoin:round;stroke-miterlimit:4;stroke-dasharray:none;stroke-opacity:1"
         d="m 7932,5564.61 c 0,0 344.54,-40.98 351.51,-343.38 0,0 224.65,133.46 376.94,-59.44 0,0 125.54,258.31 552.93,178.91 0,0 -305.42,323.77 29.04,554.5 0,0 -441.93,43.36 -410.72,342.38 0,0 -399.99,-263.44 -803.07,-48.85 0,0 112.36,-322.83 -224.61,-279.86 0,0 324.32,-125.85 127.98,-344.26 z" /><path
         id="path70"
         style="fill:none;stroke:#ffffff;stroke-width:5;stroke-linecap:round;stroke-linejoin:round;stroke-miterlimit:4;stroke-dasharray:none;stroke-opacity:1"
         d="m 8951.18,6459.06 c 0,0 39.88,-441.57 475.31,-498.74 0,0 -323.7,-407.28 123.82,-755.47 0,0 -746.22,88.76 -833.51,-387.21 0,0 -340.23,372.04 -608.48,78.73 0,0 48.77,570.54 -533.14,610.37 0,0 305.41,284.38 -95.77,533 0,0 493.28,55.97 312.77,410.3 0,0 569.5,-295.61 1159,9.02 z" /><path
         id="path72"
         style="fill:none;stroke:#ffffff;stroke-width:5;stroke-linecap:round;stroke-linejoin:round;stroke-miterlimit:4;stroke-dasharray:none;stroke-opacity:1"
         d="m 8769.76,4494.3 c 0,0 120.94,646.91 1088.75,586.32 0,0 -628.49,556.27 -12.22,1028.22 0,0 -781.33,4.75 -704,704.6 0,0 -738.06,-507.61 -1610.82,-75.25 0,0 143.3,-549.52 -450.63,-537.78 0,0 550.72,-359.36 139.67,-751.17 0,0 760.41,-112.05 691.37,-917.09 0,0 394.15,451.15 857.88,-37.85 z" /><path
         id="path74"
         style="fill:none;stroke:#ffffff;stroke-width:5;stroke-linecap:round;stroke-linejoin:round;stroke-miterlimit:4;stroke-dasharray:none;stroke-opacity:1"
         d="m 9332.09,7165.36 c 0,0 -114.89,-671.67 872.91,-929.62 0,0 -472.48,-720.86 228.7,-1387.05 0,0 -1167.52,-89.51 -1502.53,-1340.14 0,0 -560.06,1003.22 -1202.48,683.97 0,0 233.46,827.62 -1076.62,1164.55 0,0 516.23,532.46 -232.74,1110.04 0,0 799.42,-22.15 728.19,695.39 0,0 1167.7,-611.86 2184.57,2.86 z" /><path
         id="path76"
         style="fill:none;stroke:#ffffff;stroke-width:5;stroke-linecap:round;stroke-linejoin:round;stroke-miterlimit:4;stroke-dasharray:none;stroke-opacity:1"
         d="m 5494.8,6839.83 c 0,0 1168.16,-246.61 1237.33,781.79 0,0 1691.56,-842.05 2861.48,28.54 0,0 234.09,-1176.03 1131.09,-1230.53 0,0 -735.88,-1115.91 391.1,-1845.91 0,0 -1523.41,-178.02 -1985.2,-2283.22 0,0 -758.21,1741.38 -1902.33,974.25 0,0 -12.75,1664.36 -1487.36,1944.58 0,0 774.17,739.79 -246.11,1630.5 z" /><path
         id="path78"
         style="fill:none;stroke:#ffffff;stroke-width:5;stroke-linecap:round;stroke-linejoin:round;stroke-miterlimit:4;stroke-dasharray:none;stroke-opacity:1"
         d="m 6859.26,2580.61 c 0,0 -292.15,2210.95 -2266.24,2442.59 0,0 481.33,1111.28 -528.12,2393.1 0,0 2179.73,-121.83 1643.6,1336.71 0,0 1938.2,-1726.1 4089.5,-723.87 0,0 147.82,-1223.12 1272.4,-1487.21 0,0 -401,-1117.13 345.3,-2089.12 0,0 -1474.41,-751.51 -2120.47,-3167.67 0,0 -724.46,1714.05 -2435.97,1295.47 z" /><path
         id="path80"
         style="fill:none;stroke:#ffffff;stroke-width:5;stroke-linecap:round;stroke-linejoin:round;stroke-miterlimit:4;stroke-dasharray:none;stroke-opacity:1"
         d="m 5179.14,9338.07 c 0,0 96.63,-1642.95 -2116.84,-1517.59 0,0 1584.74,-902.11 464.11,-2970.23 0,0 2537.82,-738.7 3165.61,-2579.73 0,0 1690.89,138.07 2676.51,-1433.137" /><path
         id="path82"
         style="fill:none;stroke:#ffffff;stroke-width:5;stroke-linecap:round;stroke-linejoin:round;stroke-miterlimit:4;stroke-dasharray:none;stroke-opacity:1"
         d="m 2378.36,4664.06 c 0,0 1454.41,2600.14 -31.01,3444.65 0,0 1910.29,177.48 1953.72,2199.89 0,0 3316.08,-2149.26 5642.93,-2008.76 0,0 1001.1,-1458.73 1886.7,-1488.93 0,0 -576.2,-1256.5 -345.1,-2386.28 l -2872.12,1157.9" /><path
         id="path84"
         style="fill:none;stroke:#ffffff;stroke-width:5;stroke-linecap:round;stroke-linejoin:round;stroke-miterlimit:4;stroke-dasharray:none;stroke-opacity:1"
         d="m 9410.98,578.164 c 0,0 1171.72,3359.606 2074.62,3846.466" /><path
         id="path86"
         style="fill:none;stroke:#ffffff;stroke-width:5;stroke-linecap:round;stroke-linejoin:round;stroke-miterlimit:4;stroke-dasharray:none;stroke-opacity:1"
         d="m 2240.52,8151.78 c 0,0 747.91,-1859.47 -2074.629,-3846.46" /><path
         id="path88"
         style="fill:none;stroke:#000000;stroke-width:5;stroke-linecap:butt;stroke-linejoin:miter;stroke-miterlimit:4;stroke-dasharray:none;stroke-opacity:1"
         d="m 2328.25,2241.48 h -270" /><path
         id="path90"
         style="fill:none;stroke:#000000;stroke-width:5;stroke-linecap:butt;stroke-linejoin:miter;stroke-miterlimit:4;stroke-dasharray:none;stroke-opacity:1"
         d="m 2418.25,2151.48 v -270" /><path
         id="path92"
         style="fill:none;stroke:#000000;stroke-width:5;stroke-linecap:butt;stroke-linejoin:miter;stroke-miterlimit:4;stroke-dasharray:none;stroke-opacity:1"
         d="m 2328.25,8241.48 h -270" /><path
         id="path94"
         style="fill:none;stroke:#000000;stroke-width:5;stroke-linecap:butt;stroke-linejoin:miter;stroke-miterlimit:4;stroke-dasharray:none;stroke-opacity:1"
         d="m 2418.25,8331.48 v 270" /><path
         id="path96"
         style="fill:none;stroke:#000000;stroke-width:5;stroke-linecap:butt;stroke-linejoin:miter;stroke-miterlimit:4;stroke-dasharray:none;stroke-opacity:1"
         d="m 10508.2,8241.48 h 270" /><path
         id="path98"
         style="fill:none;stroke:#000000;stroke-width:5;stroke-linecap:butt;stroke-linejoin:miter;stroke-miterlimit:4;stroke-dasharray:none;stroke-opacity:1"
         d="m 10418.2,8331.48 v 270" /><path
         id="path100"
         style="fill:none;stroke:#000000;stroke-width:5;stroke-linecap:butt;stroke-linejoin:miter;stroke-miterlimit:4;stroke-dasharray:none;stroke-opacity:1"
         d="m 10508.2,2241.48 h 270" /><path
         id="path102"
         style="fill:none;stroke:#000000;stroke-width:5;stroke-linecap:butt;stroke-linejoin:miter;stroke-miterlimit:4;stroke-dasharray:none;stroke-opacity:1"
         d="m 10418.2,2151.48 v -270" /></g></g></svg>